<mxfile host="app.diagrams.net" modified="2023-04-12T20:28:00.771Z" agent="Mozilla/5.0 (Windows NT 10.0; Win64; x64) AppleWebKit/537.36 (KHTML, like Gecko) Chrome/111.0.0.0 Safari/537.36" version="21.1.6" etag="Wo6VqvU-7m9c9lt_9BpF" type="github">
  <diagram name="Page-1" id="HfRqamg5RS0QHsvj_mwQ">
    <mxGraphModel>
      <root>
        <mxCell id="0" />
        <mxCell id="1" parent="0" />
      </root>
    </mxGraphModel>
  </diagram>
</mxfile>
